<svg xmlns="http://www.w3.org/2000/svg" width="1920" height="1080"><path d="M-202,-167L121,-174L195,-179Z" fill="#f4eef6" stroke="#f4eef6" stroke-width="1.51"/><path d="M497,-161L671,-137L1081,-140Z" fill="#c9d4e8" stroke="#c9d4e8" stroke-width="1.51"/><path d="M497,-161L1081,-140L1319,-172Z" fill="#b9cde4" stroke="#b9cde4" stroke-width="1.51"/><path d="M195,-179L497,-161L1319,-172Z" fill="#d0d8ea" stroke="#d0d8ea" stroke-width="1.51"/><path d="M1366,1218L942,1231L1506,1227Z" fill="#1d6793" stroke="#1d6793" stroke-width="1.51"/><path d="M942,1231L724,1247L1506,1227Z" fill="#377097" stroke="#377097" stroke-width="1.51"/><path d="M1319,-172L1627,-141L1737,-156Z" fill="#98aed4" stroke="#98aed4" stroke-width="1.51"/><path d="M195,-179L1319,-172L1850,-181Z" fill="#aec7e0" stroke="#aec7e0" stroke-width="1.51"/><path d="M1319,-172L1737,-156L1850,-181Z" fill="#96accf" stroke="#96accf" stroke-width="1.51"/><path d="M1506,1227L724,1247L1962,1256Z" fill="#14608d" stroke="#14608d" stroke-width="1.51"/><path d="M724,1247L499,1269L1962,1256Z" fill="#366d94" stroke="#366d94" stroke-width="1.51"/><path d="M1752,1210L1506,1227L1962,1256Z" fill="#045281" stroke="#045281" stroke-width="1.51"/><path d="M1850,-181L1940,-171L2089,-169Z" fill="#8c9cb7" stroke="#8c9cb7" stroke-width="1.51"/><path d="M1931,64L2043,255L2109,68Z" fill="#7689a9" stroke="#7689a9" stroke-width="1.51"/><path d="M1937,1103L1962,1256L2110,1084Z" fill="#034d78" stroke="#034d78" stroke-width="1.51"/><path d="M1995,376L2090,502L2116,387Z" fill="#53799d" stroke="#53799d" stroke-width="1.51"/><path d="M2043,255L1995,376L2116,387Z" fill="#5e7ea1" stroke="#5e7ea1" stroke-width="1.51"/><path d="M2109,68L2043,255L2116,387Z" fill="#6980a0" stroke="#6980a0" stroke-width="1.51"/><path d="M1972,1002L2110,1084L2117,957Z" fill="#035281" stroke="#035281" stroke-width="1.51"/><path d="M1942,-48L2109,68L2124,-60Z" fill="#808faa" stroke="#808faa" stroke-width="1.51"/><path d="M2109,68L2116,387L2124,-60Z" fill="#7284a0" stroke="#7284a0" stroke-width="1.51"/><path d="M2110,1084L1962,1256L2127,1245Z" fill="#02456c" stroke="#02456c" stroke-width="1.51"/><path d="M2117,957L2110,1084L2127,1245Z" fill="#034b75" stroke="#034b75" stroke-width="1.51"/><path d="M2090,502L1968,615L2130,557Z" fill="#3f7299" stroke="#3f7299" stroke-width="1.51"/><path d="M1968,615L2066,754L2130,557Z" fill="#316d96" stroke="#316d96" stroke-width="1.51"/><path d="M2066,754L2092,839L2130,557Z" fill="#206690" stroke="#206690" stroke-width="1.51"/><path d="M2116,387L2090,502L2130,557Z" fill="#487396" stroke="#487396" stroke-width="1.51"/><path d="M2092,839L2117,957L2130,557Z" fill="#17608b" stroke="#17608b" stroke-width="1.51"/><path d="M2117,957L2127,1245L2130,557Z" fill="#035484" stroke="#035484" stroke-width="1.51"/><path d="M2124,-60L2116,387L2130,557Z" fill="#617b9b" stroke="#617b9b" stroke-width="1.51"/><path d="M2092,839L1938,898L2117,957Z" fill="#075a8c" stroke="#075a8c" stroke-width="1.51"/><path d="M2089,-169L1942,-48L2124,-60Z" fill="#8493ad" stroke="#8493ad" stroke-width="1.51"/><path d="M1942,-48L1931,64L2109,68Z" fill="#7f91af" stroke="#7f91af" stroke-width="1.51"/><path d="M1938,898L1972,1002L2117,957Z" fill="#045a8c" stroke="#045a8c" stroke-width="1.51"/><path d="M1972,1002L1937,1103L2110,1084Z" fill="#045382" stroke="#045382" stroke-width="1.51"/><path d="M1931,64L1915,236L2043,255Z" fill="#748bad" stroke="#748bad" stroke-width="1.51"/><path d="M1940,-171L1942,-48L2089,-169Z" fill="#8999b4" stroke="#8999b4" stroke-width="1.51"/><path d="M1995,376L1923,511L2090,502Z" fill="#4f7aa1" stroke="#4f7aa1" stroke-width="1.51"/><path d="M1923,511L1968,615L2090,502Z" fill="#4377a0" stroke="#4377a0" stroke-width="1.51"/><path d="M2066,754L1938,898L2092,839Z" fill="#136191" stroke="#136191" stroke-width="1.51"/><path d="M1968,615L1920,732L2066,754Z" fill="#266e9b" stroke="#266e9b" stroke-width="1.51"/><path d="M1920,732L1938,898L2066,754Z" fill="#186797" stroke="#186797" stroke-width="1.51"/><path d="M1915,236L1995,376L2043,255Z" fill="#6784a9" stroke="#6784a9" stroke-width="1.51"/><path d="M1828,141L1915,236L1931,64Z" fill="#7b91b5" stroke="#7b91b5" stroke-width="1.51"/><path d="M1920,732L1866,849L1938,898Z" fill="#15699d" stroke="#15699d" stroke-width="1.51"/><path d="M1815,1195L1752,1210L1962,1256Z" fill="#044f7c" stroke="#044f7c" stroke-width="1.51"/><path d="M1857,342L1923,511L1995,376Z" fill="#5982aa" stroke="#5982aa" stroke-width="1.51"/><path d="M1915,236L1857,342L1995,376Z" fill="#6687ae" stroke="#6687ae" stroke-width="1.51"/><path d="M1859,270L1857,342L1915,236Z" fill="#6c8bb3" stroke="#6c8bb3" stroke-width="1.51"/><path d="M1848,-3L1931,64L1942,-48Z" fill="#8598b8" stroke="#8598b8" stroke-width="1.51"/><path d="M1937,1103L1815,1195L1962,1256Z" fill="#034f7c" stroke="#034f7c" stroke-width="1.51"/><path d="M1923,511L1847,574L1968,615Z" fill="#427ba7" stroke="#427ba7" stroke-width="1.51"/><path d="M1847,574L1920,732L1968,615Z" fill="#3476a4" stroke="#3476a4" stroke-width="1.51"/><path d="M1938,898L1837,974L1972,1002Z" fill="#055e94" stroke="#055e94" stroke-width="1.51"/><path d="M1837,974L1937,1103L1972,1002Z" fill="#045a8e" stroke="#045a8e" stroke-width="1.51"/><path d="M1940,-171L1850,-181L1942,-48Z" fill="#8c9ebb" stroke="#8c9ebb" stroke-width="1.51"/><path d="M1814,1129L1815,1195L1937,1103Z" fill="#045686" stroke="#045686" stroke-width="1.51"/><path d="M1847,574L1808,724L1920,732Z" fill="#2e77a8" stroke="#2e77a8" stroke-width="1.51"/><path d="M1857,342L1796,504L1923,511Z" fill="#5584b0" stroke="#5584b0" stroke-width="1.51"/><path d="M1837,974L1814,1129L1937,1103Z" fill="#045b8f" stroke="#045b8f" stroke-width="1.51"/><path d="M1850,-181L1848,-3L1942,-48Z" fill="#8b9ebe" stroke="#8b9ebe" stroke-width="1.51"/><path d="M1319,-172L1439,-132L1627,-141Z" fill="#9bb4d7" stroke="#9bb4d7" stroke-width="1.51"/><path d="M1866,849L1837,974L1938,898Z" fill="#06639c" stroke="#06639c" stroke-width="1.51"/><path d="M1808,724L1866,849L1920,732Z" fill="#1d70a3" stroke="#1d70a3" stroke-width="1.51"/><path d="M1848,-3L1828,141L1931,64Z" fill="#8297ba" stroke="#8297ba" stroke-width="1.51"/><path d="M1828,141L1859,270L1915,236Z" fill="#7490b6" stroke="#7490b6" stroke-width="1.51"/><path d="M1796,504L1847,574L1923,511Z" fill="#4980ae" stroke="#4980ae" stroke-width="1.51"/><path d="M1113,1195L942,1231L1366,1218Z" fill="#2f6e98" stroke="#2f6e98" stroke-width="1.51"/><path d="M1711,647L1808,724L1847,574Z" fill="#357cad" stroke="#357cad" stroke-width="1.51"/><path d="M1737,-156L1750,8L1848,-3Z" fill="#8ca1c3" stroke="#8ca1c3" stroke-width="1.51"/><path d="M1728,70L1828,141L1848,-3Z" fill="#839abf" stroke="#839abf" stroke-width="1.51"/><path d="M1750,8L1728,70L1848,-3Z" fill="#879dc2" stroke="#879dc2" stroke-width="1.51"/><path d="M1737,-156L1848,-3L1850,-181Z" fill="#8fa3c3" stroke="#8fa3c3" stroke-width="1.51"/><path d="M1719,476L1796,504L1857,342Z" fill="#5888b4" stroke="#5888b4" stroke-width="1.51"/><path d="M1663,394L1719,476L1857,342Z" fill="#5f8bb8" stroke="#5f8bb8" stroke-width="1.51"/><path d="M1828,141L1693,254L1859,270Z" fill="#7692bb" stroke="#7692bb" stroke-width="1.51"/><path d="M1808,724L1686,820L1866,849Z" fill="#1a71a7" stroke="#1a71a7" stroke-width="1.51"/><path d="M1711,936L1837,974L1866,849Z" fill="#0566a0" stroke="#0566a0" stroke-width="1.51"/><path d="M1686,820L1711,936L1866,849Z" fill="#106ca6" stroke="#106ca6" stroke-width="1.51"/><path d="M1752,1146L1814,1129L1837,974Z" fill="#045d92" stroke="#045d92" stroke-width="1.51"/><path d="M1693,254L1857,342L1859,270Z" fill="#6d8fb9" stroke="#6d8fb9" stroke-width="1.51"/><path d="M1711,936L1752,1146L1837,974Z" fill="#046299" stroke="#046299" stroke-width="1.51"/><path d="M1693,254L1663,394L1857,342Z" fill="#698fbb" stroke="#698fbb" stroke-width="1.51"/><path d="M1796,504L1711,647L1847,574Z" fill="#4281b0" stroke="#4281b0" stroke-width="1.51"/><path d="M1735,716L1686,820L1808,724Z" fill="#2077ac" stroke="#2077ac" stroke-width="1.51"/><path d="M1711,647L1735,716L1808,724Z" fill="#2b7aae" stroke="#2b7aae" stroke-width="1.51"/><path d="M1583,1182L1506,1227L1752,1210Z" fill="#04598b" stroke="#04598b" stroke-width="1.51"/><path d="M1814,1129L1752,1146L1815,1195Z" fill="#035788" stroke="#035788" stroke-width="1.51"/><path d="M1728,70L1693,254L1828,141Z" fill="#7e97c0" stroke="#7e97c0" stroke-width="1.51"/><path d="M1719,476L1711,647L1796,504Z" fill="#4885b4" stroke="#4885b4" stroke-width="1.51"/><path d="M1752,1146L1752,1210L1815,1195Z" fill="#035586" stroke="#035586" stroke-width="1.51"/><path d="M1711,936L1594,1079L1752,1146Z" fill="#04639b" stroke="#04639b" stroke-width="1.51"/><path d="M1622,645L1711,647L1719,476Z" fill="#4283b5" stroke="#4283b5" stroke-width="1.51"/><path d="M1603,243L1693,254L1728,70Z" fill="#7c99c3" stroke="#7c99c3" stroke-width="1.51"/><path d="M1584,61L1603,243L1728,70Z" fill="#839ec7" stroke="#839ec7" stroke-width="1.51"/><path d="M1627,-141L1615,-55L1737,-156Z" fill="#93a9cd" stroke="#93a9cd" stroke-width="1.51"/><path d="M1737,-156L1615,-55L1750,8Z" fill="#90a5c9" stroke="#90a5c9" stroke-width="1.51"/><path d="M1583,1182L1752,1210L1752,1146Z" fill="#04588b" stroke="#04588b" stroke-width="1.51"/><path d="M1594,1079L1583,1182L1752,1146Z" fill="#055e94" stroke="#055e94" stroke-width="1.51"/><path d="M1615,-55L1728,70L1750,8Z" fill="#8aa1c7" stroke="#8aa1c7" stroke-width="1.51"/><path d="M1254,1193L1113,1195L1366,1218Z" fill="#216b98" stroke="#216b98" stroke-width="1.51"/><path d="M1615,-55L1584,61L1728,70Z" fill="#8ba3ca" stroke="#8ba3ca" stroke-width="1.51"/><path d="M1611,812L1686,820L1735,716Z" fill="#1d76ae" stroke="#1d76ae" stroke-width="1.51"/><path d="M1622,645L1562,709L1735,716Z" fill="#2d7fb4" stroke="#2d7fb4" stroke-width="1.51"/><path d="M1562,709L1611,812L1735,716Z" fill="#227bb2" stroke="#227bb2" stroke-width="1.51"/><path d="M1711,647L1622,645L1735,716Z" fill="#327fb2" stroke="#327fb2" stroke-width="1.51"/><path d="M1557,932L1594,1079L1711,936Z" fill="#0569a5" stroke="#0569a5" stroke-width="1.51"/><path d="M1545,432L1622,645L1719,476Z" fill="#4f8abb" stroke="#4f8abb" stroke-width="1.51"/><path d="M1603,243L1663,394L1693,254Z" fill="#6f95c1" stroke="#6f95c1" stroke-width="1.51"/><path d="M1686,820L1611,812L1711,936Z" fill="#1270ab" stroke="#1270ab" stroke-width="1.51"/><path d="M1611,812L1557,932L1711,936Z" fill="#0b6fac" stroke="#0b6fac" stroke-width="1.51"/><path d="M1663,394L1545,432L1719,476Z" fill="#5c8dbd" stroke="#5c8dbd" stroke-width="1.51"/><path d="M1603,243L1543,337L1663,394Z" fill="#6d95c3" stroke="#6d95c3" stroke-width="1.51"/><path d="M1545,432L1466,523L1622,645Z" fill="#4e8dc0" stroke="#4e8dc0" stroke-width="1.51"/><path d="M1584,61L1486,113L1603,243Z" fill="#84a0cc" stroke="#84a0cc" stroke-width="1.51"/><path d="M1543,337L1545,432L1663,394Z" fill="#6492c2" stroke="#6492c2" stroke-width="1.51"/><path d="M1466,523L1490,688L1622,645Z" fill="#3f88bd" stroke="#3f88bd" stroke-width="1.51"/><path d="M1439,-132L1615,-55L1627,-141Z" fill="#95add3" stroke="#95add3" stroke-width="1.51"/><path d="M1466,523L1430,604L1490,688Z" fill="#458dc0" stroke="#458dc0" stroke-width="1.51"/><path d="M1434,-9L1584,61L1615,-55Z" fill="#90a8d1" stroke="#90a8d1" stroke-width="1.51"/><path d="M1490,688L1562,709L1622,645Z" fill="#3183ba" stroke="#3183ba" stroke-width="1.51"/><path d="M1439,-132L1434,-9L1615,-55Z" fill="#95aed4" stroke="#95aed4" stroke-width="1.51"/><path d="M1557,932L1434,1069L1594,1079Z" fill="#086ba6" stroke="#086ba6" stroke-width="1.51"/><path d="M1562,709L1415,808L1611,812Z" fill="#207db7" stroke="#207db7" stroke-width="1.51"/><path d="M1415,808L1557,932L1611,812Z" fill="#1677b3" stroke="#1677b3" stroke-width="1.51"/><path d="M1434,1069L1583,1182L1594,1079Z" fill="#07659e" stroke="#07659e" stroke-width="1.51"/><path d="M1428,255L1543,337L1603,243Z" fill="#759bc9" stroke="#759bc9" stroke-width="1.51"/><path d="M1486,113L1428,255L1603,243Z" fill="#7fa0cc" stroke="#7fa0cc" stroke-width="1.51"/><path d="M1490,688L1415,808L1562,709Z" fill="#2883b9" stroke="#2883b9" stroke-width="1.51"/><path d="M1434,1069L1506,1227L1583,1182Z" fill="#0a6297" stroke="#0a6297" stroke-width="1.51"/><path d="M1428,255L1450,323L1543,337Z" fill="#749cc9" stroke="#749cc9" stroke-width="1.51"/><path d="M1429,939L1434,1069L1557,932Z" fill="#1170ac" stroke="#1170ac" stroke-width="1.51"/><path d="M1434,-9L1486,113L1584,61Z" fill="#8ca8d0" stroke="#8ca8d0" stroke-width="1.51"/><path d="M1415,808L1429,939L1557,932Z" fill="#1676b3" stroke="#1676b3" stroke-width="1.51"/><path d="M1543,337L1450,323L1545,432Z" fill="#6a97c6" stroke="#6a97c6" stroke-width="1.51"/><path d="M1369,392L1466,523L1545,432Z" fill="#5f96c5" stroke="#5f96c5" stroke-width="1.51"/><path d="M1450,323L1369,392L1545,432Z" fill="#699ac7" stroke="#699ac7" stroke-width="1.51"/><path d="M671,-137L847,-106L1081,-140Z" fill="#bfcfe5" stroke="#bfcfe5" stroke-width="1.51"/><path d="M1348,215L1428,255L1486,113Z" fill="#84a5ce" stroke="#84a5ce" stroke-width="1.51"/><path d="M1434,1069L1366,1218L1506,1227Z" fill="#126497" stroke="#126497" stroke-width="1.51"/><path d="M1415,808L1363,849L1429,939Z" fill="#1f7cb6" stroke="#1f7cb6" stroke-width="1.51"/><path d="M1434,-9L1290,67L1486,113Z" fill="#90aed3" stroke="#90aed3" stroke-width="1.51"/><path d="M1430,604L1346,691L1490,688Z" fill="#3c8bbe" stroke="#3c8bbe" stroke-width="1.51"/><path d="M1346,691L1415,808L1490,688Z" fill="#2d87bc" stroke="#2d87bc" stroke-width="1.51"/><path d="M1290,67L1348,215L1486,113Z" fill="#8babd1" stroke="#8babd1" stroke-width="1.51"/><path d="M1429,939L1358,1074L1434,1069Z" fill="#1771a9" stroke="#1771a9" stroke-width="1.51"/><path d="M1358,1074L1366,1218L1434,1069Z" fill="#186ca0" stroke="#186ca0" stroke-width="1.51"/><path d="M1369,392L1294,516L1466,523Z" fill="#5e99c7" stroke="#5e99c7" stroke-width="1.51"/><path d="M1294,516L1356,580L1466,523Z" fill="#5496c5" stroke="#5496c5" stroke-width="1.51"/><path d="M1356,580L1430,604L1466,523Z" fill="#4d92c2" stroke="#4d92c2" stroke-width="1.51"/><path d="M1326,932L1358,1074L1429,939Z" fill="#1b76ae" stroke="#1b76ae" stroke-width="1.51"/><path d="M1324,-13L1290,67L1434,-9Z" fill="#95b3d6" stroke="#95b3d6" stroke-width="1.51"/><path d="M1324,-13L1434,-9L1439,-132Z" fill="#98b3d6" stroke="#98b3d6" stroke-width="1.51"/><path d="M1428,255L1369,392L1450,323Z" fill="#739fca" stroke="#739fca" stroke-width="1.51"/><path d="M1348,215L1369,392L1428,255Z" fill="#79a2cc" stroke="#79a2cc" stroke-width="1.51"/><path d="M1356,580L1346,691L1430,604Z" fill="#4590c1" stroke="#4590c1" stroke-width="1.51"/><path d="M1319,-172L1324,-13L1439,-132Z" fill="#9cb8d8" stroke="#9cb8d8" stroke-width="1.51"/><path d="M1363,849L1326,932L1429,939Z" fill="#1d7ab6" stroke="#1d7ab6" stroke-width="1.51"/><path d="M1081,-140L1170,-123L1319,-172Z" fill="#a7c3dd" stroke="#a7c3dd" stroke-width="1.51"/><path d="M1346,691L1363,849L1415,808Z" fill="#2b84bb" stroke="#2b84bb" stroke-width="1.51"/><path d="M847,-106L979,-111L1081,-140Z" fill="#b7cbe3" stroke="#b7cbe3" stroke-width="1.51"/><path d="M1190,208L1177,350L1348,215Z" fill="#83acd1" stroke="#83acd1" stroke-width="1.51"/><path d="M1290,67L1210,117L1348,215Z" fill="#8fb0d4" stroke="#8fb0d4" stroke-width="1.51"/><path d="M1243,576L1346,691L1356,580Z" fill="#4a94c3" stroke="#4a94c3" stroke-width="1.51"/><path d="M1326,932L1246,971L1358,1074Z" fill="#1f78af" stroke="#1f78af" stroke-width="1.51"/><path d="M1346,691L1167,721L1363,849Z" fill="#328bbe" stroke="#328bbe" stroke-width="1.51"/><path d="M1167,721L1252,896L1363,849Z" fill="#2e88bc" stroke="#2e88bc" stroke-width="1.51"/><path d="M1358,1074L1254,1193L1366,1218Z" fill="#1b6b9b" stroke="#1b6b9b" stroke-width="1.51"/><path d="M1348,215L1177,350L1369,392Z" fill="#79a6ce" stroke="#79a6ce" stroke-width="1.51"/><path d="M1177,350L1221,449L1369,392Z" fill="#6fa4cc" stroke="#6fa4cc" stroke-width="1.51"/><path d="M1221,449L1294,516L1369,392Z" fill="#659fc9" stroke="#659fc9" stroke-width="1.51"/><path d="M1319,-172L1223,-19L1324,-13Z" fill="#9dbbd9" stroke="#9dbbd9" stroke-width="1.51"/><path d="M1252,896L1326,932L1363,849Z" fill="#237fb8" stroke="#237fb8" stroke-width="1.51"/><path d="M1181,1086L1254,1193L1358,1074Z" fill="#2072a4" stroke="#2072a4" stroke-width="1.51"/><path d="M1246,971L1181,1086L1358,1074Z" fill="#2278ac" stroke="#2278ac" stroke-width="1.51"/><path d="M1210,117L1190,208L1348,215Z" fill="#8cb0d3" stroke="#8cb0d3" stroke-width="1.51"/><path d="M1294,516L1243,576L1356,580Z" fill="#5499c6" stroke="#5499c6" stroke-width="1.51"/><path d="M1170,-123L1223,-19L1319,-172Z" fill="#a1bfdc" stroke="#a1bfdc" stroke-width="1.51"/><path d="M1243,576L1167,721L1346,691Z" fill="#4494c3" stroke="#4494c3" stroke-width="1.51"/><path d="M1223,-19L1290,67L1324,-13Z" fill="#98b8d8" stroke="#98b8d8" stroke-width="1.51"/><path d="M1252,896L1246,971L1326,932Z" fill="#237eb6" stroke="#237eb6" stroke-width="1.51"/><path d="M1221,449L1243,576L1294,516Z" fill="#5e9ec8" stroke="#5e9ec8" stroke-width="1.51"/><path d="M1167,721L1119,887L1252,896Z" fill="#388abe" stroke="#388abe" stroke-width="1.51"/><path d="M1223,-19L1210,117L1290,67Z" fill="#97b7d7" stroke="#97b7d7" stroke-width="1.51"/><path d="M1221,449L1125,582L1243,576Z" fill="#5f9fc9" stroke="#5f9fc9" stroke-width="1.51"/><path d="M1125,582L1167,721L1243,576Z" fill="#539ac6" stroke="#539ac6" stroke-width="1.51"/><path d="M1119,887L1246,971L1252,896Z" fill="#2d82b9" stroke="#2d82b9" stroke-width="1.51"/><path d="M1181,1086L1113,1195L1254,1193Z" fill="#2b72a0" stroke="#2b72a0" stroke-width="1.51"/><path d="M1084,513L1125,582L1221,449Z" fill="#67a2cc" stroke="#67a2cc" stroke-width="1.51"/><path d="M1079,3L1210,117L1223,-19Z" fill="#9ebbd9" stroke="#9ebbd9" stroke-width="1.51"/><path d="M1072,1003L1181,1086L1246,971Z" fill="#317db0" stroke="#317db0" stroke-width="1.51"/><path d="M1119,887L1072,1003L1246,971Z" fill="#3582b7" stroke="#3582b7" stroke-width="1.51"/><path d="M1125,582L1128,710L1167,721Z" fill="#4f98c6" stroke="#4f98c6" stroke-width="1.51"/><path d="M1109,314L1177,350L1190,208Z" fill="#85aed2" stroke="#85aed2" stroke-width="1.51"/><path d="M1170,-123L1079,3L1223,-19Z" fill="#a4c0dc" stroke="#a4c0dc" stroke-width="1.51"/><path d="M1177,350L1084,513L1221,449Z" fill="#71a6cd" stroke="#71a6cd" stroke-width="1.51"/><path d="M1128,710L1119,887L1167,721Z" fill="#4291c1" stroke="#4291c1" stroke-width="1.51"/><path d="M1103,198L1190,208L1210,117Z" fill="#93b3d5" stroke="#93b3d5" stroke-width="1.51"/><path d="M1042,78L1103,198L1210,117Z" fill="#9bb8d8" stroke="#9bb8d8" stroke-width="1.51"/><path d="M1079,3L1042,78L1210,117Z" fill="#a0bcda" stroke="#a0bcda" stroke-width="1.51"/><path d="M1081,-140L1079,3L1170,-123Z" fill="#aac3de" stroke="#aac3de" stroke-width="1.51"/><path d="M1109,314L1084,513L1177,350Z" fill="#7baad0" stroke="#7baad0" stroke-width="1.51"/><path d="M1072,1003L1059,1065L1181,1086Z" fill="#387eaf" stroke="#387eaf" stroke-width="1.51"/><path d="M1103,198L1109,314L1190,208Z" fill="#8db1d4" stroke="#8db1d4" stroke-width="1.51"/><path d="M992,375L1084,513L1109,314Z" fill="#7facd1" stroke="#7facd1" stroke-width="1.51"/><path d="M1059,1065L1113,1195L1181,1086Z" fill="#3579a8" stroke="#3579a8" stroke-width="1.51"/><path d="M964,849L1119,887L1128,710Z" fill="#4790c1" stroke="#4790c1" stroke-width="1.51"/><path d="M992,375L980,461L1084,513Z" fill="#7cabd1" stroke="#7cabd1" stroke-width="1.51"/><path d="M1103,198L981,210L1109,314Z" fill="#93b4d6" stroke="#93b4d6" stroke-width="1.51"/><path d="M925,753L964,849L1128,710Z" fill="#5196c5" stroke="#5196c5" stroke-width="1.51"/><path d="M1125,582L920,603L1128,710Z" fill="#5e9fc9" stroke="#5e9fc9" stroke-width="1.51"/><path d="M920,603L925,753L1128,710Z" fill="#5c9dc8" stroke="#5c9dc8" stroke-width="1.51"/><path d="M979,-111L1079,3L1081,-140Z" fill="#afc6e0" stroke="#afc6e0" stroke-width="1.51"/><path d="M990,987L1072,1003L1119,887Z" fill="#4085b9" stroke="#4085b9" stroke-width="1.51"/><path d="M1084,513L920,603L1125,582Z" fill="#69a3cc" stroke="#69a3cc" stroke-width="1.51"/><path d="M348,1240L58,1260L499,1269Z" fill="#7486a3" stroke="#7486a3" stroke-width="1.51"/><path d="M1042,78L984,145L1103,198Z" fill="#a0bbda" stroke="#a0bbda" stroke-width="1.51"/><path d="M1059,1065L942,1231L1113,1195Z" fill="#3c77a2" stroke="#3c77a2" stroke-width="1.51"/><path d="M964,849L990,987L1119,887Z" fill="#468abf" stroke="#468abf" stroke-width="1.51"/><path d="M979,-111L984,-6L1079,3Z" fill="#afc6e0" stroke="#afc6e0" stroke-width="1.51"/><path d="M971,1060L942,1231L1059,1065Z" fill="#447daa" stroke="#447daa" stroke-width="1.51"/><path d="M981,210L992,375L1109,314Z" fill="#8fb3d5" stroke="#8fb3d5" stroke-width="1.51"/><path d="M984,145L981,210L1103,198Z" fill="#9db9d9" stroke="#9db9d9" stroke-width="1.51"/><path d="M980,461L920,603L1084,513Z" fill="#73a8ce" stroke="#73a8ce" stroke-width="1.51"/><path d="M984,-6L1042,78L1079,3Z" fill="#a9c2dd" stroke="#a9c2dd" stroke-width="1.51"/><path d="M990,987L1059,1065L1072,1003Z" fill="#4182b4" stroke="#4182b4" stroke-width="1.51"/><path d="M990,987L971,1060L1059,1065Z" fill="#4483b3" stroke="#4483b3" stroke-width="1.51"/><path d="M984,-6L984,145L1042,78Z" fill="#a8c0dd" stroke="#a8c0dd" stroke-width="1.51"/><path d="M864,1197L724,1247L942,1231Z" fill="#4d789d" stroke="#4d789d" stroke-width="1.51"/><path d="M858,1100L864,1197L942,1231Z" fill="#4b7ba4" stroke="#4b7ba4" stroke-width="1.51"/><path d="M858,1100L942,1231L971,1060Z" fill="#4a7faa" stroke="#4a7faa" stroke-width="1.51"/><path d="M856,572L920,603L980,461Z" fill="#77aad0" stroke="#77aad0" stroke-width="1.51"/><path d="M979,-111L847,-106L984,-6Z" fill="#b7cbe2" stroke="#b7cbe2" stroke-width="1.51"/><path d="M847,-106L828,-39L984,-6Z" fill="#bacbe3" stroke="#bacbe3" stroke-width="1.51"/><path d="M984,-6L826,66L984,145Z" fill="#adc3de" stroke="#adc3de" stroke-width="1.51"/><path d="M964,849L828,968L990,987Z" fill="#4f8cbe" stroke="#4f8cbe" stroke-width="1.51"/><path d="M801,431L980,461L992,375Z" fill="#87b0d3" stroke="#87b0d3" stroke-width="1.51"/><path d="M816,326L801,431L992,375Z" fill="#92b4d6" stroke="#92b4d6" stroke-width="1.51"/><path d="M981,210L868,210L992,375Z" fill="#99b8d8" stroke="#99b8d8" stroke-width="1.51"/><path d="M868,210L816,326L992,375Z" fill="#99b8d8" stroke="#99b8d8" stroke-width="1.51"/><path d="M868,210L981,210L984,145Z" fill="#a3bcdb" stroke="#a3bcdb" stroke-width="1.51"/><path d="M828,968L971,1060L990,987Z" fill="#4e87b7" stroke="#4e87b7" stroke-width="1.51"/><path d="M828,-39L826,66L984,-6Z" fill="#b6c9e1" stroke="#b6c9e1" stroke-width="1.51"/><path d="M826,66L868,210L984,145Z" fill="#abc1dd" stroke="#abc1dd" stroke-width="1.51"/><path d="M801,431L856,572L980,461Z" fill="#83aed2" stroke="#83aed2" stroke-width="1.51"/><path d="M828,968L858,1100L971,1060Z" fill="#5086b5" stroke="#5086b5" stroke-width="1.51"/><path d="M920,603L808,700L925,753Z" fill="#67a2ca" stroke="#67a2ca" stroke-width="1.51"/><path d="M925,753L788,824L964,849Z" fill="#5a98c6" stroke="#5a98c6" stroke-width="1.51"/><path d="M788,824L828,968L964,849Z" fill="#5a92c3" stroke="#5a92c3" stroke-width="1.51"/><path d="M856,572L808,700L920,603Z" fill="#71a7cd" stroke="#71a7cd" stroke-width="1.51"/><path d="M808,700L788,824L925,753Z" fill="#639ec8" stroke="#639ec8" stroke-width="1.51"/><path d="M801,431L744,449L856,572Z" fill="#8ab1d4" stroke="#8ab1d4" stroke-width="1.51"/><path d="M828,968L691,1107L858,1100Z" fill="#5988b5" stroke="#5988b5" stroke-width="1.51"/><path d="M858,1100L691,1107L864,1197Z" fill="#5582ac" stroke="#5582ac" stroke-width="1.51"/><path d="M691,1107L724,1247L864,1197Z" fill="#577ea5" stroke="#577ea5" stroke-width="1.51"/><path d="M744,273L816,326L868,210Z" fill="#a4bcdb" stroke="#a4bcdb" stroke-width="1.51"/><path d="M826,66L728,114L868,210Z" fill="#b3c4df" stroke="#b3c4df" stroke-width="1.51"/><path d="M728,114L744,273L868,210Z" fill="#afc1dd" stroke="#afc1dd" stroke-width="1.51"/><path d="M756,-5L826,66L828,-39Z" fill="#bccbe3" stroke="#bccbe3" stroke-width="1.51"/><path d="M687,644L808,700L856,572Z" fill="#77a8cf" stroke="#77a8cf" stroke-width="1.51"/><path d="M744,449L687,644L856,572Z" fill="#84aed3" stroke="#84aed3" stroke-width="1.51"/><path d="M195,-179L289,-152L497,-161Z" fill="#e7e3f0" stroke="#e7e3f0" stroke-width="1.51"/><path d="M788,824L709,842L828,968Z" fill="#6295c5" stroke="#6295c5" stroke-width="1.51"/><path d="M709,842L680,942L828,968Z" fill="#6393c4" stroke="#6393c4" stroke-width="1.51"/><path d="M756,-5L828,-39L847,-106Z" fill="#c0cee4" stroke="#c0cee4" stroke-width="1.51"/><path d="M671,-137L756,-5L847,-106Z" fill="#c5d1e6" stroke="#c5d1e6" stroke-width="1.51"/><path d="M714,750L788,824L808,700Z" fill="#6aa0ca" stroke="#6aa0ca" stroke-width="1.51"/><path d="M743,345L801,431L816,326Z" fill="#9ab8d8" stroke="#9ab8d8" stroke-width="1.51"/><path d="M680,942L691,1107L828,968Z" fill="#618dbb" stroke="#618dbb" stroke-width="1.51"/><path d="M576,1229L499,1269L724,1247Z" fill="#607d9e" stroke="#607d9e" stroke-width="1.51"/><path d="M756,-5L728,114L826,66Z" fill="#bbc9e2" stroke="#bbc9e2" stroke-width="1.51"/><path d="M497,-161L627,-129L671,-137Z" fill="#d4d9ea" stroke="#d4d9ea" stroke-width="1.51"/><path d="M628,589L687,644L744,449Z" fill="#89b0d3" stroke="#89b0d3" stroke-width="1.51"/><path d="M744,273L743,345L816,326Z" fill="#a2bbda" stroke="#a2bbda" stroke-width="1.51"/><path d="M743,345L744,449L801,431Z" fill="#97b6d7" stroke="#97b6d7" stroke-width="1.51"/><path d="M687,644L714,750L808,700Z" fill="#73a6cd" stroke="#73a6cd" stroke-width="1.51"/><path d="M617,497L628,589L744,449Z" fill="#92b4d6" stroke="#92b4d6" stroke-width="1.51"/><path d="M714,750L709,842L788,824Z" fill="#6a9dc9" stroke="#6a9dc9" stroke-width="1.51"/><path d="M619,99L569,235L728,114Z" fill="#bec9e2" stroke="#bec9e2" stroke-width="1.51"/><path d="M728,114L569,235L744,273Z" fill="#b5c4df" stroke="#b5c4df" stroke-width="1.51"/><path d="M743,345L619,312L744,449Z" fill="#a1bad9" stroke="#a1bad9" stroke-width="1.51"/><path d="M627,-129L542,-17L756,-5Z" fill="#ccd3e8" stroke="#ccd3e8" stroke-width="1.51"/><path d="M542,-17L619,99L756,-5Z" fill="#c7d0e6" stroke="#c7d0e6" stroke-width="1.51"/><path d="M671,-137L627,-129L756,-5Z" fill="#cbd4e8" stroke="#cbd4e8" stroke-width="1.51"/><path d="M619,99L728,114L756,-5Z" fill="#bfcbe3" stroke="#bfcbe3" stroke-width="1.51"/><path d="M691,1107L608,1119L724,1247Z" fill="#6084ab" stroke="#6084ab" stroke-width="1.51"/><path d="M569,235L619,312L744,273Z" fill="#b1c1de" stroke="#b1c1de" stroke-width="1.51"/><path d="M619,312L743,345L744,273Z" fill="#a8bedb" stroke="#a8bedb" stroke-width="1.51"/><path d="M619,312L617,497L744,449Z" fill="#9eb9d9" stroke="#9eb9d9" stroke-width="1.51"/><path d="M608,1119L576,1229L724,1247Z" fill="#6181a5" stroke="#6181a5" stroke-width="1.51"/><path d="M545,997L608,1119L680,942Z" fill="#6b91bc" stroke="#6b91bc" stroke-width="1.51"/><path d="M680,942L608,1119L691,1107Z" fill="#668cb8" stroke="#668cb8" stroke-width="1.51"/><path d="M687,644L621,689L714,750Z" fill="#79a8cf" stroke="#79a8cf" stroke-width="1.51"/><path d="M547,863L680,942L709,842Z" fill="#6e99c8" stroke="#6e99c8" stroke-width="1.51"/><path d="M621,689L547,863L709,842Z" fill="#74a1cb" stroke="#74a1cb" stroke-width="1.51"/><path d="M621,689L709,842L714,750Z" fill="#72a3cc" stroke="#72a3cc" stroke-width="1.51"/><path d="M628,589L621,689L687,644Z" fill="#82acd2" stroke="#82acd2" stroke-width="1.51"/><path d="M547,863L545,997L680,942Z" fill="#6f97c5" stroke="#6f97c5" stroke-width="1.51"/><path d="M450,357L424,449L617,497Z" fill="#a8bedc" stroke="#a8bedc" stroke-width="1.51"/><path d="M450,357L617,497L619,312Z" fill="#a9bedc" stroke="#a9bedc" stroke-width="1.51"/><path d="M501,55L569,235L619,99Z" fill="#c5cce4" stroke="#c5cce4" stroke-width="1.51"/><path d="M542,-17L501,55L619,99Z" fill="#ccd1e7" stroke="#ccd1e7" stroke-width="1.51"/><path d="M463,752L547,863L621,689Z" fill="#7da7ce" stroke="#7da7ce" stroke-width="1.51"/><path d="M497,-161L542,-17L627,-129Z" fill="#d5d9eb" stroke="#d5d9eb" stroke-width="1.51"/><path d="M451,636L621,689L628,589Z" fill="#89afd3" stroke="#89afd3" stroke-width="1.51"/><path d="M617,497L451,636L628,589Z" fill="#91b4d6" stroke="#91b4d6" stroke-width="1.51"/><path d="M424,449L451,636L617,497Z" fill="#9cb9d9" stroke="#9cb9d9" stroke-width="1.51"/><path d="M451,636L463,752L621,689Z" fill="#86aed2" stroke="#86aed2" stroke-width="1.51"/><path d="M501,55L447,212L569,235Z" fill="#c6cce4" stroke="#c6cce4" stroke-width="1.51"/><path d="M477,1128L576,1229L608,1119Z" fill="#6988ad" stroke="#6988ad" stroke-width="1.51"/><path d="M545,997L477,1128L608,1119Z" fill="#6e8fb8" stroke="#6e8fb8" stroke-width="1.51"/><path d="M569,235L450,357L619,312Z" fill="#b5c3df" stroke="#b5c3df" stroke-width="1.51"/><path d="M497,-161L451,-67L542,-17Z" fill="#d8daeb" stroke="#d8daeb" stroke-width="1.51"/><path d="M427,978L545,997L547,863Z" fill="#7699c5" stroke="#7699c5" stroke-width="1.51"/><path d="M463,752L460,822L547,863Z" fill="#7fa4cd" stroke="#7fa4cd" stroke-width="1.51"/><path d="M447,212L450,357L569,235Z" fill="#bcc7e1" stroke="#bcc7e1" stroke-width="1.51"/><path d="M477,1128L499,1269L576,1229Z" fill="#6983a5" stroke="#6983a5" stroke-width="1.51"/><path d="M427,978L477,1128L545,997Z" fill="#7594be" stroke="#7594be" stroke-width="1.51"/><path d="M460,822L427,978L547,863Z" fill="#7b9eca" stroke="#7b9eca" stroke-width="1.51"/><path d="M451,-67L501,55L542,-17Z" fill="#d4d6e9" stroke="#d4d6e9" stroke-width="1.51"/><path d="M447,212L380,258L450,357Z" fill="#c0c9e2" stroke="#c0c9e2" stroke-width="1.51"/><path d="M424,449L313,589L451,636Z" fill="#a0bbda" stroke="#a0bbda" stroke-width="1.51"/><path d="M427,978L372,1136L477,1128Z" fill="#7793ba" stroke="#7793ba" stroke-width="1.51"/><path d="M372,1136L348,1240L477,1128Z" fill="#748cae" stroke="#748cae" stroke-width="1.51"/><path d="M477,1128L348,1240L499,1269Z" fill="#6f86a6" stroke="#6f86a6" stroke-width="1.51"/><path d="M333,84L447,212L501,55Z" fill="#d0d2e7" stroke="#d0d2e7" stroke-width="1.51"/><path d="M373,-10L333,84L501,55Z" fill="#d7d7e9" stroke="#d7d7e9" stroke-width="1.51"/><path d="M451,-67L373,-10L501,55Z" fill="#d8d8ea" stroke="#d8d8ea" stroke-width="1.51"/><path d="M451,636L375,682L463,752Z" fill="#8db1d4" stroke="#8db1d4" stroke-width="1.51"/><path d="M289,-152L451,-67L497,-161Z" fill="#e0dfed" stroke="#e0dfed" stroke-width="1.51"/><path d="M350,448L313,589L424,449Z" fill="#aabfdc" stroke="#aabfdc" stroke-width="1.51"/><path d="M313,858L427,978L460,822Z" fill="#81a1cc" stroke="#81a1cc" stroke-width="1.51"/><path d="M359,374L424,449L450,357Z" fill="#b3c3de" stroke="#b3c3de" stroke-width="1.51"/><path d="M313,858L460,822L463,752Z" fill="#85a7cf" stroke="#85a7cf" stroke-width="1.51"/><path d="M375,682L313,858L463,752Z" fill="#8aacd1" stroke="#8aacd1" stroke-width="1.51"/><path d="M313,858L315,966L427,978Z" fill="#829ec9" stroke="#829ec9" stroke-width="1.51"/><path d="M380,258L359,374L450,357Z" fill="#bcc7e1" stroke="#bcc7e1" stroke-width="1.51"/><path d="M165,1205L58,1260L348,1240Z" fill="#7b8ca8" stroke="#7b8ca8" stroke-width="1.51"/><path d="M315,966L372,1136L427,978Z" fill="#7d98c0" stroke="#7d98c0" stroke-width="1.51"/><path d="M333,84L380,258L447,212Z" fill="#cdcfe5" stroke="#cdcfe5" stroke-width="1.51"/><path d="M289,-152L373,-10L451,-67Z" fill="#e0deed" stroke="#e0deed" stroke-width="1.51"/><path d="M313,589L375,682L451,636Z" fill="#97b6d7" stroke="#97b6d7" stroke-width="1.51"/><path d="M359,374L350,448L424,449Z" fill="#b2c2de" stroke="#b2c2de" stroke-width="1.51"/><path d="M224,96L218,271L333,84Z" fill="#d6d6e9" stroke="#d6d6e9" stroke-width="1.51"/><path d="M218,271L250,392L359,374Z" fill="#c1cbe3" stroke="#c1cbe3" stroke-width="1.51"/><path d="M315,966L221,1067L372,1136Z" fill="#7f98bf" stroke="#7f98bf" stroke-width="1.51"/><path d="M289,-152L244,-7L373,-10Z" fill="#e2e0ee" stroke="#e2e0ee" stroke-width="1.51"/><path d="M256,685L313,858L375,682Z" fill="#8fb1d4" stroke="#8fb1d4" stroke-width="1.51"/><path d="M313,589L256,685L375,682Z" fill="#99b7d7" stroke="#99b7d7" stroke-width="1.51"/><path d="M218,271L359,374L380,258Z" fill="#c3cbe3" stroke="#c3cbe3" stroke-width="1.51"/><path d="M333,84L218,271L380,258Z" fill="#ced1e6" stroke="#ced1e6" stroke-width="1.51"/><path d="M165,1205L348,1240L372,1136Z" fill="#788cac" stroke="#788cac" stroke-width="1.51"/><path d="M221,1067L165,1205L372,1136Z" fill="#7e94b6" stroke="#7e94b6" stroke-width="1.51"/><path d="M244,-7L333,84L373,-10Z" fill="#dddbeb" stroke="#dddbeb" stroke-width="1.51"/><path d="M184,466L188,558L313,589Z" fill="#abc2de" stroke="#abc2de" stroke-width="1.51"/><path d="M313,858L254,933L315,966Z" fill="#85a1cc" stroke="#85a1cc" stroke-width="1.51"/><path d="M184,466L313,589L350,448Z" fill="#adc2dd" stroke="#adc2dd" stroke-width="1.51"/><path d="M250,392L350,448L359,374Z" fill="#b7c5e0" stroke="#b7c5e0" stroke-width="1.51"/><path d="M250,392L184,466L350,448Z" fill="#b6c6e0" stroke="#b6c6e0" stroke-width="1.51"/><path d="M249,891L254,933L313,858Z" fill="#88a4ce" stroke="#88a4ce" stroke-width="1.51"/><path d="M256,685L249,891L313,858Z" fill="#8dacd2" stroke="#8dacd2" stroke-width="1.51"/><path d="M244,-7L224,96L333,84Z" fill="#dcdbec" stroke="#dcdbec" stroke-width="1.51"/><path d="M188,558L256,685L313,589Z" fill="#a1bcda" stroke="#a1bcda" stroke-width="1.51"/><path d="M254,933L221,1067L315,966Z" fill="#849ec6" stroke="#849ec6" stroke-width="1.51"/><path d="M86,754L249,891L256,685Z" fill="#92b1d5" stroke="#92b1d5" stroke-width="1.51"/><path d="M195,-179L244,-7L289,-152Z" fill="#e8e4f0" stroke="#e8e4f0" stroke-width="1.51"/><path d="M-202,-167L-65,-128L121,-174Z" fill="#f7eff7" stroke="#f7eff7" stroke-width="1.51"/><path d="M121,-174L99,-12L195,-179Z" fill="#ede8f3" stroke="#ede8f3" stroke-width="1.51"/><path d="M105,145L218,271L224,96Z" fill="#d8d7ea" stroke="#d8d7ea" stroke-width="1.51"/><path d="M195,-179L99,-12L244,-7Z" fill="#e9e5f1" stroke="#e9e5f1" stroke-width="1.51"/><path d="M86,754L52,834L249,891Z" fill="#93b0d4" stroke="#93b0d4" stroke-width="1.51"/><path d="M218,271L43,363L250,392Z" fill="#c5cee5" stroke="#c5cee5" stroke-width="1.51"/><path d="M70,934L221,1067L254,933Z" fill="#88a2c8" stroke="#88a2c8" stroke-width="1.51"/><path d="M188,558L115,569L256,685Z" fill="#a5bfdc" stroke="#a5bfdc" stroke-width="1.51"/><path d="M115,569L86,754L256,685Z" fill="#9fbcda" stroke="#9fbcda" stroke-width="1.51"/><path d="M249,891L70,934L254,933Z" fill="#8ba4ce" stroke="#8ba4ce" stroke-width="1.51"/><path d="M99,-12L224,96L244,-7Z" fill="#e3dfee" stroke="#e3dfee" stroke-width="1.51"/><path d="M52,834L70,934L249,891Z" fill="#90aad1" stroke="#90aad1" stroke-width="1.51"/><path d="M43,363L184,466L250,392Z" fill="#bfcbe3" stroke="#bfcbe3" stroke-width="1.51"/><path d="M105,145L39,207L218,271Z" fill="#d7d7e9" stroke="#d7d7e9" stroke-width="1.51"/><path d="M53,1124L165,1205L221,1067Z" fill="#8397b8" stroke="#8397b8" stroke-width="1.51"/><path d="M70,934L53,1124L221,1067Z" fill="#89a0c4" stroke="#89a0c4" stroke-width="1.51"/><path d="M99,-12L105,145L224,96Z" fill="#e1deee" stroke="#e1deee" stroke-width="1.51"/><path d="M39,207L43,363L218,271Z" fill="#d0d5e8" stroke="#d0d5e8" stroke-width="1.51"/><path d="M43,363L58,455L184,466Z" fill="#bfcde4" stroke="#bfcde4" stroke-width="1.51"/><path d="M184,466L115,569L188,558Z" fill="#afc5df" stroke="#afc5df" stroke-width="1.51"/><path d="M58,455L115,569L184,466Z" fill="#b5c8e1" stroke="#b5c8e1" stroke-width="1.51"/><path d="M53,1124L58,1260L165,1205Z" fill="#8293b0" stroke="#8293b0" stroke-width="1.51"/><path d="M39,207L-29,263L43,363Z" fill="#d3d7e9" stroke="#d3d7e9" stroke-width="1.51"/><path d="M-61,961L53,1124L70,934Z" fill="#8fa5c9" stroke="#8fa5c9" stroke-width="1.51"/><path d="M-65,-128L-33,-9L99,-12Z" fill="#f0eaf3" stroke="#f0eaf3" stroke-width="1.51"/><path d="M99,-12L-30,65L105,145Z" fill="#e6e2ef" stroke="#e6e2ef" stroke-width="1.51"/><path d="M-29,710L86,754L115,569Z" fill="#a2bfdb" stroke="#a2bfdb" stroke-width="1.51"/><path d="M-58,595L-29,710L115,569Z" fill="#aac3de" stroke="#aac3de" stroke-width="1.51"/><path d="M-65,-128L99,-12L121,-174Z" fill="#f0ebf5" stroke="#f0ebf5" stroke-width="1.51"/><path d="M58,455L-58,523L115,569Z" fill="#b6cae2" stroke="#b6cae2" stroke-width="1.51"/><path d="M-58,523L-58,595L115,569Z" fill="#b2c8e1" stroke="#b2c8e1" stroke-width="1.51"/><path d="M-33,-9L-30,65L99,-12Z" fill="#ebe6f2" stroke="#ebe6f2" stroke-width="1.51"/><path d="M-30,65L39,207L105,145Z" fill="#e1deee" stroke="#e1deee" stroke-width="1.51"/><path d="M-61,961L-75,1115L53,1124Z" fill="#8ea2c4" stroke="#8ea2c4" stroke-width="1.51"/><path d="M53,1124L-61,1252L58,1260Z" fill="#8394af" stroke="#8394af" stroke-width="1.51"/><path d="M52,834L-12,888L70,934Z" fill="#94add3" stroke="#94add3" stroke-width="1.51"/><path d="M-29,710L52,834L86,754Z" fill="#9ab8d8" stroke="#9ab8d8" stroke-width="1.51"/><path d="M-75,1115L-61,1252L53,1124Z" fill="#889ab7" stroke="#889ab7" stroke-width="1.51"/><path d="M-12,888L-61,961L70,934Z" fill="#92aad1" stroke="#92aad1" stroke-width="1.51"/><path d="M-29,263L-59,335L43,363Z" fill="#cfd6e9" stroke="#cfd6e9" stroke-width="1.51"/><path d="M-29,710L-12,888L52,834Z" fill="#99b5d7" stroke="#99b5d7" stroke-width="1.51"/><path d="M43,363L-59,335L58,455Z" fill="#c8d2e7" stroke="#c8d2e7" stroke-width="1.51"/><path d="M-59,335L-58,523L58,455Z" fill="#c2d0e6" stroke="#c2d0e6" stroke-width="1.51"/><path d="M-30,65L-29,263L39,207Z" fill="#dfddec" stroke="#dfddec" stroke-width="1.51"/><path d="M-30,65L-164,133L-29,263Z" fill="#e3e0ef" stroke="#e3e0ef" stroke-width="1.51"/><path d="M-153,996L-75,1115L-61,961Z" fill="#92a6c9" stroke="#92a6c9" stroke-width="1.51"/><path d="M-75,1115L-151,1186L-61,1252Z" fill="#8999b4" stroke="#8999b4" stroke-width="1.51"/><path d="M-151,341L-147,489L-59,335Z" fill="#cbd5e9" stroke="#cbd5e9" stroke-width="1.51"/><path d="M-59,335L-147,489L-58,523Z" fill="#c3d1e6" stroke="#c3d1e6" stroke-width="1.51"/><path d="M-164,133L-140,240L-29,263Z" fill="#dfdeed" stroke="#dfdeed" stroke-width="1.51"/><path d="M-168,874L-61,961L-12,888Z" fill="#96aed4" stroke="#96aed4" stroke-width="1.51"/><path d="M-29,710L-158,740L-12,888Z" fill="#9db9d9" stroke="#9db9d9" stroke-width="1.51"/><path d="M-158,740L-168,874L-12,888Z" fill="#9cb6d8" stroke="#9cb6d8" stroke-width="1.51"/><path d="M-65,-128L-165,-65L-33,-9Z" fill="#f3edf5" stroke="#f3edf5" stroke-width="1.51"/><path d="M-33,-9L-165,-65L-30,65Z" fill="#efeaf4" stroke="#efeaf4" stroke-width="1.51"/><path d="M-165,-65L-164,133L-30,65Z" fill="#ede8f3" stroke="#ede8f3" stroke-width="1.51"/><path d="M-58,595L-158,740L-29,710Z" fill="#a6c2de" stroke="#a6c2de" stroke-width="1.51"/><path d="M-140,240L-59,335L-29,263Z" fill="#d6daea" stroke="#d6daea" stroke-width="1.51"/><path d="M-153,996L-189,1107L-75,1115Z" fill="#91a4c4" stroke="#91a4c4" stroke-width="1.51"/><path d="M-168,874L-153,996L-61,961Z" fill="#96add1" stroke="#96add1" stroke-width="1.51"/><path d="M-140,240L-151,341L-59,335Z" fill="#d5d9eb" stroke="#d5d9eb" stroke-width="1.51"/><path d="M-58,523L-147,489L-58,595Z" fill="#b8cbe3" stroke="#b8cbe3" stroke-width="1.51"/><path d="M-147,489L-203,568L-58,595Z" fill="#b8cce3" stroke="#b8cce3" stroke-width="1.51"/><path d="M-203,568L-158,740L-58,595Z" fill="#adc6e0" stroke="#adc6e0" stroke-width="1.51"/><path d="M-202,-167L-165,-65L-65,-128Z" fill="#f8f0f8" stroke="#f8f0f8" stroke-width="1.51"/><path d="M-189,1107L-151,1186L-75,1115Z" fill="#8d9fbc" stroke="#8d9fbc" stroke-width="1.51"/><path d="M-151,341L-203,568L-147,489Z" fill="#c3d2e7" stroke="#c3d2e7" stroke-width="1.51"/><path d="M-164,133L-151,341L-140,240Z" fill="#dddeed" stroke="#dddeed" stroke-width="1.51"/><path d="M-164,133L-203,568L-151,341Z" fill="#d1d9ea" stroke="#d1d9ea" stroke-width="1.51"/><path d="M-168,874L-189,1107L-153,996Z" fill="#95aacd" stroke="#95aacd" stroke-width="1.51"/><path d="M-165,-65L-202,-167L-164,133Z" fill="#f4eef6" stroke="#f4eef6" stroke-width="1.51"/><path d="M-203,568L-168,874L-158,740Z" fill="#a4c1dd" stroke="#a4c1dd" stroke-width="1.51"/><path d="M-202,-167L-203,568L-164,133Z" fill="#e5e2ef" stroke="#e5e2ef" stroke-width="1.51"/><path d="M-203,568L-189,1107L-168,874Z" fill="#9db6d8" stroke="#9db6d8" stroke-width="1.51"/></svg>